<?xml version="1.0" standalone="no"?>
<!DOCTYPE svg PUBLIC "-//W3C//DTD SVG 20010904//EN"
 "http://www.w3.org/TR/2001/REC-SVG-20010904/DTD/svg10.dtd">
<svg version="1.0" xmlns="http://www.w3.org/2000/svg"
 width="303.000000pt" height="303.000000pt" viewBox="0 0 303.000000 303.000000"
 preserveAspectRatio="xMidYMid meet">
<metadata>
Created by potrace 1.11, written by Peter Selinger 2001-2013
</metadata>
<g transform="translate(0.000000,303.000000) scale(0.100000,-0.100000)"
fill="#000000" stroke="none">
<path d="M1433 2640 c-67 -27 -147 -99 -181 -164 -24 -46 -27 -62 -27 -151 0
-89 3 -106 27 -150 96 -182 324 -239 494 -122 56 39 109 111 125 170 18 66 13
180 -10 232 -28 62 -104 140 -168 172 -76 36 -186 42 -260 13z"/>
<path d="M837 2143 c-9 -203 -9 -584 0 -795 l6 -165 81 -12 c100 -15 271 -71
345 -113 31 -18 99 -60 151 -95 l95 -63 3 467 c1 256 0 468 -2 470 -2 2 -31
11 -65 19 -175 40 -311 167 -362 335 -23 76 -21 75 -149 99 -104 20 -96 32
-103 -147z"/>
<path d="M2138 2285 c-89 -18 -102 -27 -117 -77 -56 -186 -221 -338 -386 -355
l-55 -6 0 -474 c0 -261 3 -473 8 -471 4 2 52 33 108 70 173 116 355 188 509
204 l65 7 0 416 c0 229 -3 480 -7 559 l-6 142 -26 -1 c-14 0 -56 -7 -93 -14z"/>
<path d="M620 1541 l0 -580 43 -5 c23 -3 84 -7 135 -10 185 -11 359 -59 566
-156 l109 -50 -7 31 c-3 17 -6 46 -6 63 0 28 -9 37 -78 82 -174 116 -289 164
-469 194 -63 11 -119 20 -124 20 -5 0 -9 208 -9 495 l0 495 -80 0 -80 0 0
-579z"/>
<path d="M2320 1627 l0 -493 -95 -12 c-52 -7 -127 -22 -167 -33 -91 -25 -249
-103 -348 -172 l-75 -52 -3 -63 c-2 -34 1 -62 6 -62 5 0 56 22 113 49 218 102
392 147 610 158 l129 6 0 584 0 583 -85 0 -85 0 0 -493z"/>
<path d="M475 1963 c-33 -2 -75 -5 -92 -8 l-33 -6 0 -661 c0 -625 1 -660 18
-653 9 3 61 17 115 30 262 64 548 59 852 -14 44 -11 84 -16 88 -12 4 4 3 20
-2 34 -8 20 -34 38 -102 72 -191 96 -359 137 -626 150 l-133 7 0 534 c0 422
-3 534 -12 532 -7 -1 -40 -3 -73 -5z"/>
<path d="M2540 1433 l0 -531 -117 -6 c-276 -13 -424 -48 -635 -148 -98 -46
-108 -54 -108 -78 0 -15 2 -29 5 -32 3 -3 51 5 107 18 56 13 156 31 221 40
207 29 494 8 682 -50 28 -9 54 -16 58 -16 11 0 5 1306 -6 1316 -5 5 -53 11
-108 14 l-99 5 0 -532z"/>
</g>
</svg>
